# xmcd CD database file
#
# Track frame offsets:
#	150
#	11841
#	26206
#	37185
#	59661
#	73655
#	88388
#	100298
#	133725
#	143986
#
# Disc length: 2060 seconds
#
# Revision: 2
# Processed by: cddbd v1.5.2PL0 Copyright (c) Steve Scherf et al.
# Submitted via: CDex 1.51
#
DISCID=9f080a0a
DTITLE=Ray Charles - Blues Is My Middle Name
DYEAR=1997
DGENRE=Soul
TTITLE0=Tell Me Baby
TTITLE1=Kiss Me Baby
TTITLE2=A Sentimental Blues
TTITLE3=What'd I Say
TTITLE4=Im Going Down The River
TTITLE5=Blues Is My Middle Name
TTITLE6=Can't You See Darling
TTITLE7=Georgia On My Mind
TTITLE8=Sitting' On Top Of The World
TTITLE9=Ain't That Fine
EXTD=YEAR: 1997
EXTT0=
EXTT1=
EXTT2=
EXTT3=
EXTT4=
EXTT5=
EXTT6=
EXTT7=
EXTT8=
EXTT9=
PLAYORDER=
